<?xml version="1.0" encoding="UTF-8"?>
<svg viewBox="0 0 310.1 331.39" xmlns="http://www.w3.org/2000/svg">
 <defs>
  <linearGradient id="a" x1=".10535" x2=".63376" y1=".5" y2=".54158">
   <stop stop-color="#e9b96e" offset="0"/>
   <stop stop-color="#b3781b" offset="1"/>
  </linearGradient>
 </defs>
 <g transform="matrix(.98176 0 0 .98176 .53148 17.439)">
  <g transform="matrix(.55427 0 0 .55427 12.992 426.28)">
   <g fill-rule="evenodd">
    <path d="m376.63-633.19c-21.808 0.9765-46.195-4.5964-65.179 9.268-24.131 14.466-46.217 32.39-72.406 43.245-13.902 10.961-37.486 2.1424-48.733 12.921 7.864 14.043 29.098 11.31 41.587 20.469 17.101 5.3103 33.568 16.782 52.176 12.839 18.682-0.88391 34.614-10.717 48.558-22.442 18.791-12.673 43.843-19.155 55.15-40.741 5.6136-10.146 2.0974-33.396-11.9-32.692 0.3761 3.3218 2.9058 5.8253 3.5044 9.0776" fill="#3e671e" stroke-width="1.838"/>
    <path d="m155.95-204.31c14 8 136-1 136-1s-45-58-30-86c-8.6158-16.05 9-161 9-161s44-68 49-72 39-35 35-37-28 4-28 4l-75 61-13.718-40.445-28.282 27.445s5 69 4 75-26 114-26 114l-25 105-7 11z" fill="url(#a)"/>
    <path d="m226.95-785.4l-59 7-44 32-64 7-76 96s-3 73 0 84 59 43 59 43 23 34 39 37 72 18 80 15 29-24 29-24l24-36 57-46s67 7 71 4 12-10 12-10 19 28 37 19 48-35 48-35 22 19 30 19 21-6 21-6 9-19 13-23 26-10 26-10l6-26s-24-31-31-39-3-33-3-33l-17-19-18 1-48-18-43-48s-7-3-11-2-27 14-27 14l-45 3-66-6z" fill="#4e9a06"/>
   </g>
   <g fill="#2e3436" stroke-linecap="round" stroke-linejoin="bevel" stroke-width="3">
    <path d="m216.2-513.37c-0.39511 39.953 2.3062 88.761-11.789 126.99-16.531 61.467-25.975 124.71-45.246 185.46 10.712 6.4028-12.65 2.8088-1.1202-6.5858 17.102-51.339 24.436-105.35 38.617-157.52 10.984-38.609 18.68-82.466 14.38-122.82-0.82794-7.3106-0.35996-19.721 5.1579-25.524z"/>
    <path d="m290.4-199.36c-13.215-20.107-28.614-40.319-29.872-65.374-5.5694-47.511 1.6104-95.334 3.2906-142.88-0.33508-27.43 11.208-52.528 25.77-75.081 9.9097-20.127 24.556-37.661 43-50.448 10.548-9.7739 20.331-32.975 28.344-37.578-12.456 22.099-28.843 41.601-48.995 56.83-15.028 19.416-26.515 41.571-37.263 63.548-10.902 33.345-7.1631 69.218-11.186 103.68-1.2247 40.466-6.7537 84.653 14.594 121.18 4.7101 7.6319 17.546 16.01 12.316 26.126z"/>
    <path d="m216.44-265.58c14.282 12.606 36.713-4.7294 39.468-10.288-1.669 10.161-39.004 31.341-39.468 10.288z"/>
    <path d="m230.78-281.06c12.132 14.998 37.944-18.35 19.472 4.2032-3.3085 6.558-26.99 4.6421-19.472-4.2032z"/>
    <path d="m244.23-316.53c14.223-5.6868-10.086 10.652 0 0z"/>
    <path d="m268.83-445.53c-3.9551 9.1279-25.261 14.885-6.2913 4.214 2.3699-0.93658 4.3008-2.696 6.2913-4.214z"/>
    <path d="m194.03-190.31c-3.0113-13.998-4.7938-50.1 2.5004-51.321-1.7664 16.897 2.3466 35.763-2.5004 51.321z"/>
    <path d="m195.83-215.73c4.8041 5.0926 24.699 29.866 8.7183 18.903-4.9102-4.5568-14.496-11.254-8.7183-18.903z"/>
    <path d="m248.77-491.84c16.547-19.935 35.397-37.716 58.232-50.237 9.9455-5.4996 31.278-23.039 33.442-22.759-19.966 19.26-46.39 30.84-67.202 48.41-7.4139 8.8986-16.196 16.497-24.471 24.586z"/>
    <path d="m251.83-497.73c-7.6417-6.9689-18.331-51.947-8.9825-32.034 2.617 4.0219 14.59 28.602 8.9825 32.034z"/>
    <path d="m273.82-559.96c-17.914 1.653-23.908 25.258-39.764 28.753-10.748 20.844-43.062 22.999-40.952 51.678-13.901 18.094-42.98 10.286-62.548 20.95-21.841 4.9908-41.768-10.536-63.033-13.281-21.262-8.1868-25.083-36.064-47.307-42.768-25.683-8.6167-51.159-34.802-43.124-63.748 3.8023-33.235-0.10751-69.806 27.189-95.332 9.6403-16.278 33.619-45.587 38.948-50.205 1.01-1.2722 28.882-24.226 45.395-18.191 22.631 2.6025 48.424-0.19849 60.408-19.926 30.332-26.737 73.305-17.649 110.31-20.38 29.403 0.23852 60.911 12.146 88.525-3.6774 17.345-25.453 46.204-10.252 55.667 13.098 21.431 24.962 51.6 40.978 84.111 45.328 25.278 2.9268 25.472 30.63 27.987 49.87 8.8483 17.551 35.777 28.033 28.632 52.472-1.4254 24.218-35.34 31.421-44.569 38.516 1.3857 25.88-34.72 32.925-51.84 19.336-19.653-20.336-36.21 7.9917-53.107 16.625-24.469 11.506-46.463-19.89-70-8.5497-13.025-11.455-39.774 3.8452-45.437-7.2604 23.247-15.909 48.82 3.3643 72.194-3.1103 17.624 6.0644 37.196 20.78 55.468 7.4388 13.952-13.857 33.463-31.894 51.104-12.231 7.3248 8.1476 41.532 4.9198 29.958 0.86108 1.2263-24.147 27.242-26.471 44.101-34.827 14.548-23.85-8.7466-42.036-23.327-56.759-8.3842-17.516 0.92548-45.127-23.5-52.176-24.509-5.3284-49.131-12.847-69.871-27.8-19.577-13.309-33.237-58.009-62.217-41.27-20.301 20.626-52.994 17.53-79.301 14.568-36.188-3.6382-73.908-5.6373-109.18 4.1259-22.768 8.965-28.812 33.141-56.422 33.79-23.253-2.4818-50.001-1.5784-67.898 15.682-11.578 16.204-31.864 42.467-44.4 63.918-14.581 23.843-2.9101 53.214-11.31 78.884-0.64404 29.702 28.026 47.422 52.151 57.631 18.167 11.767 23.968 38.498 49.365 40.66 21.682 5.0707 45.454 18.432 66.998 4.7223 14.19-9.7709 40.126 5.7206 33.93-15.523 6.1897-11.77 14.756-18.943 16.375-20.214 14.893-9.761 30.242-24.735 34.154-30.685 12.052-7.8145 10.669-1.236 15.079-9.9315 2.1233-8.0456 37.603-31.51 21.06-11.061z"/>
    <path d="m58.628-571.01c-6.793 21.404 16.589 53.139 39.487 40.482 20.656-12.353 44.185-10.856 66.176-5.4092 13.948 8.1926 30.156 6.1282 28.214-12.983 14.992 17.219-19.909 32.165-33.476 17.619-19.122-1.7474-40.235-11.291-57.111 3.1752-19.952 12.382-41.814-1.6639-47.027-22.514-3.2025-6.721-4.1652-16.48 3.7376-20.37z"/>
    <path d="m479.1-670.47c12.418 22.888 5.5683 49.36-14.694 64.741-21.977 21.224-55.4 23.553-84.276 21.633-9.1356-2.5102 20.766-2.6522 27.584-3.813 26.626-0.19177 53.654-10.316 68.518-33.457 12.353-15.291-2.3467-32.57 2.8674-49.104z"/>
    <path d="m45.391-610.88c-13.135 16.748-4.4603 39.412-3.1529 58.444 2.2939 10.066 20.835 24.22 17.372 29.053-22.716-13.217-25.796-42.567-24.919-66.279 0.95111-8.0648 2.57-17.317 10.7-21.218z"/>
    <path d="m116.19-500.84c25.009 2.5183 48.066-11.511 72.53-11.939-17.989 8.3632-38.422 9.6325-57.357 15.356-2.4728 0.93658-20.894 0.97882-15.174-3.4172z"/>
    <path d="m411.94-661.04c17.371 21.875 2.5509 57.522-18.438 70.615-18.17 4.0724-12.799-3.2434 1.2332-3.6857 19.71-13.368 26.589-41.576 16.207-62.562l0.9973-4.3666z"/>
    <path d="m372.03-715.55c14.751 27.762-1.1021 58.585-18.69 80.645-15.009 14.885-37.239 38.033-59.483 30.167-16.634-11.924 2.5088-8.4934 9.5848-2.0809 23.354-0.68134 42.282-20.085 55.302-37.848 17.174-21.656 15.443-45.994 13.287-70.883z"/>
    <path d="m288.98-577.98c-6.7511 5.949-16.074 1.1502-23.824 3.5584-6.7457 1.6456-12.879-1.9681-19.361-2.802-7.4087-1.1804-15.274-0.29572-22.344-3.0576-5.0056-2.995-8.6043-7.9128-14.009-10.363-4.3131-1.2745-9.1515-8.5346-1.3126-6.9233 5.7705 2.533 8.7599 8.8168 14.443 11.617 5.6717 3.8135 12.567 4.313 19.175 4.5682 7.6004 0.8811 15.226 1.963 22.732 3.2303 6.5769-2.1838 12.89-1.2336 19.475-0.65277 2.7988 0.38855 10.244-4.9312 5.6666-0.039001l-0.6421 0.8635z"/>
   </g>
   <path d="m359.08-786.75c-22.077 29.186-61.53 27.908-94.027 32.371-27.256-2.0359-54.559-26.201-80.787-6.2035-30.23 15.773-63.859 23.363-93.931 39.644-20.214-2.502-63.551 13.76-34.777 36.967 26.362 13.612 56.221-4.2426 73.805-24.108 27.2-26.757 40.043 24.991 69.352 20.235 35.274 6.6254 62.273-21.074 94.444-29.501 32.572-3.2461 60.885-26.337 64.557-60.037l0.7913-4.6981 0.5737-4.6687z" fill="#fff" fill-rule="evenodd" opacity=".3" stroke-width="1.838"/>
   <g fill="#2e3436">
    <path d="m100.38-669.02c4.229-29.467 38.79-54.435 67.073-39.36 16.311 8.2352 22.69 29.036 40.654 34.292 9.0772 15.545-16.284-1.7468-20.078-7.6208-11.456-15.993-29.778-32.306-51.03-26.144-19.2 3.034-27.736 20.131-34.706 36.067l-1.9119 2.7659z" stroke-linecap="round" stroke-linejoin="bevel" stroke-width="3"/>
    <g fill-rule="evenodd">
     <g stroke-width="1.838">
      <path d="m214-546.82c-23.226 13.066-46.99 27.881-74.223 30.026-17.213 1.5126-34.587-2.3799-49.99-10.059-11.862-5.0843-23.109-11.831-32.142-21.146-4.875-4.5402-10.04-9.1279-16.441-11.346-5.6357 0.99652-13.117 2.6541-14.974 8.899 0.098801 5.1201 3.8521 9.3537 6.51 13.514 3.5369 4.9418 8.3993 8.8818 10.695 14.652 2.429 5.104 5.5748 9.8803 9.8101 13.648 5.1131 6.2333 11.802 11.419 19.821 13.133 8.4189 3.1326 16.031 8.3963 25.053 9.8014 6.2432 1.3361 12.231 3.5804 18.035 6.1613 9.0818 2.7236 18.671 3.7435 27.366 7.708 9.1118 2.9592 19.343-0.716 25.302-8.0232 10.541-9.9568 21.473-19.562 30.636-30.857 5.4579-6.0232 9.8881-13.047 11.962-20.962 1.8917-4.7644 4.3116-9.9522 2.5787-15.15z" opacity=".5"/>
      <path d="m494.24-658.91c-21.808 0.97656-46.195-4.5964-65.179 9.2681-24.132 14.466-46.217 32.39-72.406 43.245-13.902 10.961-37.486 2.1425-48.733 12.921 7.864 14.043 29.098 11.31 41.587 20.469 17.101 5.3103 33.568 16.782 52.176 12.839 18.682-0.88391 34.614-10.717 48.558-22.442 18.791-12.673 43.843-19.155 55.15-40.741 5.6136-10.146 2.0974-33.396-11.9-32.692 0.3761 3.3219 2.9058 5.8253 3.5043 9.0776" opacity=".5"/>
     </g>
     <path d="m341.72-565.19c3.6609-0.52472 10.331 1.8807 11.026 5.5131 1.9455 10.162-19.296 21.133-22.971 25.728 0.23712 1.9775-17.617-9.0021-0.91885-19.296 4.2328-3.1333 7.6507-11.198 12.864-11.945z" opacity=".5"/>
     <path d="m235.13-533.03c3.6609-0.52472 10.331 1.8807 11.026 5.513 1.9455 10.162-19.296 21.133-22.971 25.727 0.23712 1.9774-17.617-9.0021-0.91885-19.296 4.2328-3.1332 7.6507-11.198 12.864-11.945z" opacity=".5"/>
    </g>
   </g>
  </g>
 </g>
 <g stroke="#000" stroke-width="3">
  <g fill="#fff">
   <rect x="240.9" y="248.51" width="63" height="72.599" opacity=".8"/>
   <rect x="166.4" y="248.31" width="63" height="72.599" opacity=".8"/>
   <rect x="80.397" y="248.31" width="63" height="72.599" opacity=".8"/>
   <rect x="5.3966" y="248.31" width="63" height="72.599" opacity=".8"/>
   <rect x="41.396" y="140.31" width="63" height="72.599" opacity=".8"/>
   <rect x="205.4" y="140.31" width="63" height="72.599" opacity=".8"/>
   <rect x="126.4" y="31.315" width="63" height="72.599" opacity=".8"/>
  </g>
  <g fill="none">
   <line x1="158.05" x2="158.05" y1="102.61" y2="122.61" opacity=".8"/>
   <line x1="239.05" x2="72.051" y1="124.61" y2="123.61" opacity=".8"/>
   <line x1="238.05" x2="238.05" y1="124.61" y2="139.61" opacity=".8"/>
   <line x1="73.051" x2="73.051" y1="122.61" y2="139.61" opacity=".8"/>
   <line x1="74.147" x2="74.147" y1="214.36" y2="234.36" opacity=".8"/>
   <line x1="112.65" x2="36.648" y1="234.86" y2="235.86" opacity=".8"/>
   <line x1="111.73" x2="111.73" y1="233.94" y2="247.94" opacity=".8"/>
   <line x1="37.731" x2="37.731" y1="234.94" y2="248.94" opacity=".8"/>
   <line x1="236.23" x2="236.23" y1="213.65" y2="233.65" opacity=".8"/>
   <line x1="274.73" x2="198.73" y1="234.15" y2="235.15" opacity=".8"/>
   <line x1="273.81" x2="273.81" y1="233.24" y2="247.24" opacity=".8"/>
   <line x1="199.81" x2="199.81" y1="234.24" y2="248.24" opacity=".8"/>
  </g>
 </g>
</svg>
